<svg xmlns="http://www.w3.org/2000/svg" xmlns:xlink="http://www.w3.org/1999/xlink" width="500" zoomAndPan="magnify" viewBox="0 0 375 374.999991" height="500" preserveAspectRatio="xMidYMid meet" version="1.0"><defs><g/><clipPath id="575b8771d5"><path d="M 209 169 L 255 169 L 255 238.371094 L 209 238.371094 Z M 209 169 " clip-rule="nonzero"/></clipPath><clipPath id="05793905fa"><path d="M 121 115 L 234 115 L 234 238.371094 L 121 238.371094 Z M 121 115 " clip-rule="nonzero"/></clipPath><clipPath id="3efce26aca"><path d="M 0.28125 3 L 5 3 L 5 9 L 0.28125 9 Z M 0.28125 3 " clip-rule="nonzero"/></clipPath><clipPath id="a684550473"><rect x="0" width="46" y="0" height="11"/></clipPath><clipPath id="b6869f818e"><rect x="0" width="32" y="0" height="11"/></clipPath><clipPath id="5a360b2a6f"><rect x="0" width="26" y="0" height="18"/></clipPath></defs><g clip-path="url(#575b8771d5)"><path fill="#0a0a0a" d="M 252.496094 221.472656 L 222.71875 169.90625 L 209.589844 192.671875 L 232.773438 232.84375 C 234.871094 236.476562 238.699219 238.542969 242.636719 238.542969 C 244.5625 238.542969 246.519531 238.039062 248.308594 237.007812 C 253.78125 233.847656 255.625 226.921875 252.496094 221.472656 Z M 252.496094 221.472656 " fill-opacity="1" fill-rule="nonzero"/></g><g clip-path="url(#05793905fa)"><path fill="#0a0a0a" d="M 231.601562 141.578125 L 218.976562 163.453125 L 205.816406 186.21875 L 185.480469 221.445312 C 179.390625 232.003906 168.019531 238.570312 155.839844 238.570312 C 143.464844 238.570312 132.375 232.171875 126.171875 221.445312 C 119.96875 210.746094 119.96875 197.925781 126.171875 187.195312 L 161.761719 125.597656 C 165.449219 119.199219 172.070312 115.375 179.445312 115.375 C 186.820312 115.375 193.441406 119.199219 197.15625 125.597656 L 198.441406 127.832031 L 202.128906 134.203125 L 188.972656 156.96875 L 179.445312 140.488281 L 145.921875 198.566406 C 142.933594 203.734375 144.917969 208.316406 145.921875 210.046875 C 146.929688 211.78125 149.890625 215.804688 155.867188 215.804688 C 159.945312 215.804688 163.773438 213.597656 165.785156 210.046875 L 192.6875 163.453125 L 205.84375 140.683594 L 211.878906 130.207031 C 215.035156 124.761719 221.992188 122.886719 227.441406 126.046875 C 232.886719 129.175781 234.757812 136.128906 231.601562 141.578125 Z M 231.601562 141.578125 " fill-opacity="1" fill-rule="nonzero"/></g><path fill="#0a0a0a" d="M 226.070312 114.535156 C 232.160156 128.253906 252.46875 119.84375 247.105469 105.820312 C 240.988281 92.132812 220.679688 100.539062 226.070312 114.535156 Z M 226.070312 114.535156 " fill-opacity="1" fill-rule="nonzero"/><g transform="matrix(1, 0, 0, 1, 119, 255)"><g clip-path="url(#a684550473)"><g clip-path="url(#3efce26aca)"><g fill="#0a0a0a" fill-opacity="1"><g transform="translate(0.367792, 8.453944)"><g><path d="M 2.53125 0 L 1.484375 0 L 1.484375 -4.078125 L 0.140625 -4.078125 L 0.140625 -4.953125 L 3.875 -4.953125 L 3.875 -4.078125 L 2.53125 -4.078125 Z M 2.53125 0 "/></g></g></g></g><g fill="#0a0a0a" fill-opacity="1"><g transform="translate(4.030188, 8.453944)"><g><path d="M 3.46875 0 L 0.625 0 L 0.625 -4.953125 L 3.46875 -4.953125 L 3.46875 -4.09375 L 1.671875 -4.09375 L 1.671875 -3 L 3.34375 -3 L 3.34375 -2.140625 L 1.671875 -2.140625 L 1.671875 -0.875 L 3.46875 -0.875 Z M 3.46875 0 "/></g></g></g><g fill="#0a0a0a" fill-opacity="1"><g transform="translate(7.560521, 8.453944)"><g><path d="M 2.734375 -4.15625 C 2.523438 -4.15625 2.34375 -4.113281 2.1875 -4.03125 C 2.039062 -3.957031 1.910156 -3.84375 1.796875 -3.6875 C 1.691406 -3.539062 1.613281 -3.363281 1.5625 -3.15625 C 1.507812 -2.957031 1.484375 -2.726562 1.484375 -2.46875 C 1.484375 -2.113281 1.523438 -1.8125 1.609375 -1.5625 C 1.703125 -1.320312 1.835938 -1.132812 2.015625 -1 C 2.203125 -0.875 2.441406 -0.8125 2.734375 -0.8125 C 2.929688 -0.8125 3.128906 -0.832031 3.328125 -0.875 C 3.535156 -0.914062 3.753906 -0.976562 3.984375 -1.0625 L 3.984375 -0.1875 C 3.765625 -0.09375 3.550781 -0.03125 3.34375 0 C 3.132812 0.0390625 2.894531 0.0625 2.625 0.0625 C 2.113281 0.0625 1.691406 -0.0390625 1.359375 -0.25 C 1.035156 -0.457031 0.796875 -0.75 0.640625 -1.125 C 0.484375 -1.507812 0.40625 -1.957031 0.40625 -2.46875 C 0.40625 -2.84375 0.453125 -3.1875 0.546875 -3.5 C 0.648438 -3.8125 0.800781 -4.082031 1 -4.3125 C 1.195312 -4.539062 1.441406 -4.71875 1.734375 -4.84375 C 2.023438 -4.96875 2.359375 -5.03125 2.734375 -5.03125 C 2.972656 -5.03125 3.21875 -5 3.46875 -4.9375 C 3.71875 -4.875 3.953125 -4.785156 4.171875 -4.671875 L 3.84375 -3.828125 C 3.65625 -3.910156 3.46875 -3.984375 3.28125 -4.046875 C 3.09375 -4.117188 2.910156 -4.15625 2.734375 -4.15625 Z M 2.734375 -4.15625 "/></g></g></g><g fill="#0a0a0a" fill-opacity="1"><g transform="translate(11.62588, 8.453944)"><g><path d="M 4.6875 0 L 3.640625 0 L 3.640625 -2.140625 L 1.671875 -2.140625 L 1.671875 0 L 0.625 0 L 0.625 -4.953125 L 1.671875 -4.953125 L 1.671875 -3.015625 L 3.640625 -3.015625 L 3.640625 -4.953125 L 4.6875 -4.953125 Z M 4.6875 0 "/></g></g></g><g fill="#0a0a0a" fill-opacity="1"><g transform="translate(16.578435, 8.453944)"><g><path d="M 5.015625 0 L 3.6875 0 L 1.53125 -3.75 L 1.5 -3.75 C 1.507812 -3.59375 1.515625 -3.429688 1.515625 -3.265625 C 1.523438 -3.109375 1.53125 -2.953125 1.53125 -2.796875 C 1.539062 -2.640625 1.550781 -2.484375 1.5625 -2.328125 L 1.5625 0 L 0.625 0 L 0.625 -4.953125 L 1.953125 -4.953125 L 4.09375 -1.25 L 4.125 -1.25 C 4.113281 -1.394531 4.101562 -1.539062 4.09375 -1.6875 C 4.09375 -1.84375 4.085938 -1.992188 4.078125 -2.140625 C 4.078125 -2.296875 4.078125 -2.453125 4.078125 -2.609375 L 4.078125 -4.953125 L 5.015625 -4.953125 Z M 5.015625 0 "/></g></g></g><g fill="#0a0a0a" fill-opacity="1"><g transform="translate(21.862841, 8.453944)"><g><path d="M 5.125 -2.484375 C 5.125 -2.097656 5.070312 -1.75 4.96875 -1.4375 C 4.875 -1.125 4.726562 -0.851562 4.53125 -0.625 C 4.34375 -0.40625 4.097656 -0.234375 3.796875 -0.109375 C 3.503906 0.00390625 3.160156 0.0625 2.765625 0.0625 C 2.359375 0.0625 2.003906 0.00390625 1.703125 -0.109375 C 1.410156 -0.234375 1.164062 -0.40625 0.96875 -0.625 C 0.78125 -0.851562 0.640625 -1.125 0.546875 -1.4375 C 0.453125 -1.75 0.40625 -2.097656 0.40625 -2.484375 C 0.40625 -3.003906 0.488281 -3.453125 0.65625 -3.828125 C 0.820312 -4.210938 1.078125 -4.507812 1.421875 -4.71875 C 1.773438 -4.925781 2.222656 -5.03125 2.765625 -5.03125 C 3.304688 -5.03125 3.75 -4.925781 4.09375 -4.71875 C 4.4375 -4.507812 4.691406 -4.210938 4.859375 -3.828125 C 5.035156 -3.441406 5.125 -2.992188 5.125 -2.484375 Z M 1.5 -2.484375 C 1.5 -2.140625 1.539062 -1.84375 1.625 -1.59375 C 1.71875 -1.34375 1.859375 -1.148438 2.046875 -1.015625 C 2.234375 -0.878906 2.472656 -0.8125 2.765625 -0.8125 C 3.054688 -0.8125 3.296875 -0.878906 3.484375 -1.015625 C 3.671875 -1.148438 3.804688 -1.34375 3.890625 -1.59375 C 3.972656 -1.84375 4.015625 -2.140625 4.015625 -2.484375 C 4.015625 -3.003906 3.914062 -3.410156 3.71875 -3.703125 C 3.53125 -4.003906 3.210938 -4.15625 2.765625 -4.15625 C 2.472656 -4.15625 2.234375 -4.085938 2.046875 -3.953125 C 1.859375 -3.816406 1.71875 -3.625 1.625 -3.375 C 1.539062 -3.125 1.5 -2.828125 1.5 -2.484375 Z M 1.5 -2.484375 "/></g></g></g><g fill="#0a0a0a" fill-opacity="1"><g transform="translate(27.028728, 8.453944)"><g><path d="M 0.625 0 L 0.625 -4.953125 L 1.671875 -4.953125 L 1.671875 -0.875 L 3.6875 -0.875 L 3.6875 0 Z M 0.625 0 "/></g></g></g><g fill="#0a0a0a" fill-opacity="1"><g transform="translate(30.592924, 8.453944)"><g><path d="M 5.125 -2.484375 C 5.125 -2.097656 5.070312 -1.75 4.96875 -1.4375 C 4.875 -1.125 4.726562 -0.851562 4.53125 -0.625 C 4.34375 -0.40625 4.097656 -0.234375 3.796875 -0.109375 C 3.503906 0.00390625 3.160156 0.0625 2.765625 0.0625 C 2.359375 0.0625 2.003906 0.00390625 1.703125 -0.109375 C 1.410156 -0.234375 1.164062 -0.40625 0.96875 -0.625 C 0.78125 -0.851562 0.640625 -1.125 0.546875 -1.4375 C 0.453125 -1.75 0.40625 -2.097656 0.40625 -2.484375 C 0.40625 -3.003906 0.488281 -3.453125 0.65625 -3.828125 C 0.820312 -4.210938 1.078125 -4.507812 1.421875 -4.71875 C 1.773438 -4.925781 2.222656 -5.03125 2.765625 -5.03125 C 3.304688 -5.03125 3.75 -4.925781 4.09375 -4.71875 C 4.4375 -4.507812 4.691406 -4.210938 4.859375 -3.828125 C 5.035156 -3.441406 5.125 -2.992188 5.125 -2.484375 Z M 1.5 -2.484375 C 1.5 -2.140625 1.539062 -1.84375 1.625 -1.59375 C 1.71875 -1.34375 1.859375 -1.148438 2.046875 -1.015625 C 2.234375 -0.878906 2.472656 -0.8125 2.765625 -0.8125 C 3.054688 -0.8125 3.296875 -0.878906 3.484375 -1.015625 C 3.671875 -1.148438 3.804688 -1.34375 3.890625 -1.59375 C 3.972656 -1.84375 4.015625 -2.140625 4.015625 -2.484375 C 4.015625 -3.003906 3.914062 -3.410156 3.71875 -3.703125 C 3.53125 -4.003906 3.210938 -4.15625 2.765625 -4.15625 C 2.472656 -4.15625 2.234375 -4.085938 2.046875 -3.953125 C 1.859375 -3.816406 1.71875 -3.625 1.625 -3.375 C 1.539062 -3.125 1.5 -2.828125 1.5 -2.484375 Z M 1.5 -2.484375 "/></g></g></g><g fill="#0a0a0a" fill-opacity="1"><g transform="translate(35.758811, 8.453944)"><g><path d="M 2.5 -2.78125 L 4.46875 -2.78125 L 4.46875 -0.21875 C 4.207031 -0.125 3.9375 -0.0507812 3.65625 0 C 3.375 0.0390625 3.054688 0.0625 2.703125 0.0625 C 2.210938 0.0625 1.796875 -0.03125 1.453125 -0.21875 C 1.109375 -0.414062 0.847656 -0.703125 0.671875 -1.078125 C 0.492188 -1.460938 0.40625 -1.929688 0.40625 -2.484375 C 0.40625 -3.003906 0.503906 -3.453125 0.703125 -3.828125 C 0.898438 -4.210938 1.191406 -4.507812 1.578125 -4.71875 C 1.960938 -4.925781 2.429688 -5.03125 2.984375 -5.03125 C 3.253906 -5.03125 3.515625 -5 3.765625 -4.9375 C 4.023438 -4.882812 4.257812 -4.8125 4.46875 -4.71875 L 4.109375 -3.875 C 3.960938 -3.957031 3.789062 -4.023438 3.59375 -4.078125 C 3.394531 -4.128906 3.191406 -4.15625 2.984375 -4.15625 C 2.679688 -4.15625 2.414062 -4.082031 2.1875 -3.9375 C 1.96875 -3.800781 1.796875 -3.601562 1.671875 -3.34375 C 1.546875 -3.09375 1.484375 -2.800781 1.484375 -2.46875 C 1.484375 -2.144531 1.523438 -1.859375 1.609375 -1.609375 C 1.703125 -1.359375 1.84375 -1.160156 2.03125 -1.015625 C 2.21875 -0.878906 2.46875 -0.8125 2.78125 -0.8125 C 2.925781 -0.8125 3.050781 -0.816406 3.15625 -0.828125 C 3.257812 -0.835938 3.351562 -0.851562 3.4375 -0.875 L 3.4375 -1.90625 L 2.5 -1.90625 Z M 2.5 -2.78125 "/></g></g></g><g fill="#0a0a0a" fill-opacity="1"><g transform="translate(40.426921, 8.453944)"><g><path d="M 2.171875 -2.90625 L 3.203125 -4.953125 L 4.328125 -4.953125 L 2.6875 -1.921875 L 2.6875 0 L 1.640625 0 L 1.640625 -1.890625 L 0 -4.953125 L 1.140625 -4.953125 Z M 2.171875 -2.90625 "/></g></g></g></g></g><g transform="matrix(1, 0, 0, 1, 119, 263)"><g clip-path="url(#b6869f818e)"><g fill="#0a0a0a" fill-opacity="1"><g transform="translate(0.970495, 8.429197)"><g><path d="M 2.15625 -5.03125 C 2.414062 -5.03125 2.648438 -4.984375 2.859375 -4.890625 C 3.066406 -4.804688 3.226562 -4.6875 3.34375 -4.53125 C 3.46875 -4.375 3.53125 -4.179688 3.53125 -3.953125 C 3.53125 -3.628906 3.4375 -3.359375 3.25 -3.140625 C 3.0625 -2.921875 2.828125 -2.734375 2.546875 -2.578125 L 3.515625 -1.640625 C 3.609375 -1.796875 3.6875 -1.957031 3.75 -2.125 C 3.8125 -2.300781 3.867188 -2.476562 3.921875 -2.65625 L 5 -2.65625 C 4.925781 -2.394531 4.820312 -2.113281 4.6875 -1.8125 C 4.5625 -1.519531 4.394531 -1.25 4.1875 -1 L 5.203125 0 L 3.921875 0 L 3.53125 -0.375 C 3.40625 -0.289062 3.265625 -0.210938 3.109375 -0.140625 C 2.953125 -0.078125 2.785156 -0.03125 2.609375 0 C 2.441406 0.0390625 2.265625 0.0625 2.078125 0.0625 C 1.703125 0.0625 1.378906 0.00390625 1.109375 -0.109375 C 0.835938 -0.222656 0.628906 -0.382812 0.484375 -0.59375 C 0.347656 -0.8125 0.28125 -1.0625 0.28125 -1.34375 C 0.28125 -1.570312 0.316406 -1.769531 0.390625 -1.9375 C 0.460938 -2.101562 0.566406 -2.25 0.703125 -2.375 C 0.835938 -2.507812 1 -2.628906 1.1875 -2.734375 C 1.0625 -2.878906 0.960938 -3.007812 0.890625 -3.125 C 0.828125 -3.25 0.78125 -3.367188 0.75 -3.484375 C 0.71875 -3.609375 0.703125 -3.738281 0.703125 -3.875 C 0.703125 -4.113281 0.765625 -4.316406 0.890625 -4.484375 C 1.015625 -4.660156 1.179688 -4.796875 1.390625 -4.890625 C 1.609375 -4.984375 1.863281 -5.03125 2.15625 -5.03125 Z M 1.78125 -2.125 C 1.695312 -2.0625 1.625 -1.992188 1.5625 -1.921875 C 1.5 -1.847656 1.445312 -1.769531 1.40625 -1.6875 C 1.375 -1.613281 1.359375 -1.53125 1.359375 -1.4375 C 1.359375 -1.238281 1.429688 -1.082031 1.578125 -0.96875 C 1.734375 -0.851562 1.921875 -0.796875 2.140625 -0.796875 C 2.296875 -0.796875 2.4375 -0.8125 2.5625 -0.84375 C 2.6875 -0.882812 2.800781 -0.9375 2.90625 -1 Z M 2.140625 -4.21875 C 2.023438 -4.21875 1.914062 -4.1875 1.8125 -4.125 C 1.707031 -4.070312 1.65625 -3.96875 1.65625 -3.8125 C 1.65625 -3.695312 1.679688 -3.582031 1.734375 -3.46875 C 1.796875 -3.363281 1.878906 -3.257812 1.984375 -3.15625 C 2.171875 -3.257812 2.316406 -3.363281 2.421875 -3.46875 C 2.523438 -3.570312 2.578125 -3.695312 2.578125 -3.84375 C 2.578125 -3.976562 2.53125 -4.070312 2.4375 -4.125 C 2.34375 -4.1875 2.242188 -4.21875 2.140625 -4.21875 Z M 2.140625 -4.21875 "/></g></g></g><g fill="#0a0a0a" fill-opacity="1"><g transform="translate(5.818076, 8.429197)"><g/></g></g><g fill="#0a0a0a" fill-opacity="1"><g transform="translate(7.26587, 8.429197)"><g><path d="M 4.734375 -2.53125 C 4.734375 -1.96875 4.625 -1.5 4.40625 -1.125 C 4.195312 -0.75 3.890625 -0.46875 3.484375 -0.28125 C 3.078125 -0.09375 2.59375 0 2.03125 0 L 0.625 0 L 0.625 -4.953125 L 2.171875 -4.953125 C 2.691406 -4.953125 3.144531 -4.859375 3.53125 -4.671875 C 3.914062 -4.492188 4.210938 -4.222656 4.421875 -3.859375 C 4.628906 -3.492188 4.734375 -3.050781 4.734375 -2.53125 Z M 3.640625 -2.5 C 3.640625 -2.863281 3.582031 -3.160156 3.46875 -3.390625 C 3.363281 -3.628906 3.207031 -3.804688 3 -3.921875 C 2.789062 -4.035156 2.535156 -4.09375 2.234375 -4.09375 L 1.671875 -4.09375 L 1.671875 -0.875 L 2.125 -0.875 C 2.632812 -0.875 3.015625 -1.007812 3.265625 -1.28125 C 3.515625 -1.550781 3.640625 -1.957031 3.640625 -2.5 Z M 3.640625 -2.5 "/></g></g></g><g fill="#0a0a0a" fill-opacity="1"><g transform="translate(12.045726, 8.429197)"><g><path d="M 3.46875 0 L 0.625 0 L 0.625 -4.953125 L 3.46875 -4.953125 L 3.46875 -4.09375 L 1.671875 -4.09375 L 1.671875 -3 L 3.34375 -3 L 3.34375 -2.140625 L 1.671875 -2.140625 L 1.671875 -0.875 L 3.46875 -0.875 Z M 3.46875 0 "/></g></g></g><g fill="#0a0a0a" fill-opacity="1"><g transform="translate(15.576059, 8.429197)"><g><path d="M 3.546875 -1.375 C 3.546875 -1.082031 3.472656 -0.828125 3.328125 -0.609375 C 3.191406 -0.390625 2.984375 -0.222656 2.703125 -0.109375 C 2.429688 0.00390625 2.101562 0.0625 1.71875 0.0625 C 1.550781 0.0625 1.382812 0.0507812 1.21875 0.03125 C 1.050781 0.0078125 0.890625 -0.0195312 0.734375 -0.0625 C 0.585938 -0.101562 0.445312 -0.160156 0.3125 -0.234375 L 0.3125 -1.203125 C 0.550781 -1.097656 0.796875 -1.003906 1.046875 -0.921875 C 1.296875 -0.835938 1.546875 -0.796875 1.796875 -0.796875 C 1.972656 -0.796875 2.113281 -0.816406 2.21875 -0.859375 C 2.320312 -0.910156 2.394531 -0.972656 2.4375 -1.046875 C 2.488281 -1.128906 2.515625 -1.222656 2.515625 -1.328125 C 2.515625 -1.453125 2.472656 -1.554688 2.390625 -1.640625 C 2.304688 -1.734375 2.191406 -1.816406 2.046875 -1.890625 C 1.898438 -1.960938 1.738281 -2.046875 1.5625 -2.140625 C 1.4375 -2.191406 1.304688 -2.253906 1.171875 -2.328125 C 1.035156 -2.410156 0.90625 -2.507812 0.78125 -2.625 C 0.664062 -2.738281 0.566406 -2.875 0.484375 -3.03125 C 0.410156 -3.195312 0.375 -3.390625 0.375 -3.609375 C 0.375 -3.910156 0.441406 -4.164062 0.578125 -4.375 C 0.710938 -4.582031 0.90625 -4.742188 1.15625 -4.859375 C 1.40625 -4.972656 1.703125 -5.03125 2.046875 -5.03125 C 2.304688 -5.03125 2.550781 -5 2.78125 -4.9375 C 3.019531 -4.875 3.265625 -4.785156 3.515625 -4.671875 L 3.1875 -3.859375 C 2.957031 -3.953125 2.75 -4.023438 2.5625 -4.078125 C 2.382812 -4.128906 2.203125 -4.15625 2.015625 -4.15625 C 1.890625 -4.15625 1.78125 -4.132812 1.6875 -4.09375 C 1.59375 -4.050781 1.519531 -3.988281 1.46875 -3.90625 C 1.425781 -3.832031 1.40625 -3.742188 1.40625 -3.640625 C 1.40625 -3.523438 1.4375 -3.425781 1.5 -3.34375 C 1.570312 -3.269531 1.675781 -3.195312 1.8125 -3.125 C 1.957031 -3.050781 2.132812 -2.960938 2.34375 -2.859375 C 2.59375 -2.734375 2.804688 -2.609375 2.984375 -2.484375 C 3.160156 -2.359375 3.296875 -2.207031 3.390625 -2.03125 C 3.492188 -1.851562 3.546875 -1.632812 3.546875 -1.375 Z M 3.546875 -1.375 "/></g></g></g><g fill="#0a0a0a" fill-opacity="1"><g transform="translate(19.042053, 8.429197)"><g><path d="M 0.625 0 L 0.625 -4.953125 L 1.671875 -4.953125 L 1.671875 0 Z M 0.625 0 "/></g></g></g><g fill="#0a0a0a" fill-opacity="1"><g transform="translate(20.984239, 8.429197)"><g><path d="M 2.5 -2.78125 L 4.46875 -2.78125 L 4.46875 -0.21875 C 4.207031 -0.125 3.9375 -0.0507812 3.65625 0 C 3.375 0.0390625 3.054688 0.0625 2.703125 0.0625 C 2.210938 0.0625 1.796875 -0.03125 1.453125 -0.21875 C 1.109375 -0.414062 0.847656 -0.703125 0.671875 -1.078125 C 0.492188 -1.460938 0.40625 -1.929688 0.40625 -2.484375 C 0.40625 -3.003906 0.503906 -3.453125 0.703125 -3.828125 C 0.898438 -4.210938 1.191406 -4.507812 1.578125 -4.71875 C 1.960938 -4.925781 2.429688 -5.03125 2.984375 -5.03125 C 3.253906 -5.03125 3.515625 -5 3.765625 -4.9375 C 4.023438 -4.882812 4.257812 -4.8125 4.46875 -4.71875 L 4.109375 -3.875 C 3.960938 -3.957031 3.789062 -4.023438 3.59375 -4.078125 C 3.394531 -4.128906 3.191406 -4.15625 2.984375 -4.15625 C 2.679688 -4.15625 2.414062 -4.082031 2.1875 -3.9375 C 1.96875 -3.800781 1.796875 -3.601562 1.671875 -3.34375 C 1.546875 -3.09375 1.484375 -2.800781 1.484375 -2.46875 C 1.484375 -2.144531 1.523438 -1.859375 1.609375 -1.609375 C 1.703125 -1.359375 1.84375 -1.160156 2.03125 -1.015625 C 2.21875 -0.878906 2.46875 -0.8125 2.78125 -0.8125 C 2.925781 -0.8125 3.050781 -0.816406 3.15625 -0.828125 C 3.257812 -0.835938 3.351562 -0.851562 3.4375 -0.875 L 3.4375 -1.90625 L 2.5 -1.90625 Z M 2.5 -2.78125 "/></g></g></g><g fill="#0a0a0a" fill-opacity="1"><g transform="translate(25.652349, 8.429197)"><g><path d="M 5.015625 0 L 3.6875 0 L 1.53125 -3.75 L 1.5 -3.75 C 1.507812 -3.59375 1.515625 -3.429688 1.515625 -3.265625 C 1.523438 -3.109375 1.53125 -2.953125 1.53125 -2.796875 C 1.539062 -2.640625 1.550781 -2.484375 1.5625 -2.328125 L 1.5625 0 L 0.625 0 L 0.625 -4.953125 L 1.953125 -4.953125 L 4.09375 -1.25 L 4.125 -1.25 C 4.113281 -1.394531 4.101562 -1.539062 4.09375 -1.6875 C 4.09375 -1.84375 4.085938 -1.992188 4.078125 -2.140625 C 4.078125 -2.296875 4.078125 -2.453125 4.078125 -2.609375 L 4.078125 -4.953125 L 5.015625 -4.953125 Z M 5.015625 0 "/></g></g></g></g></g><g transform="matrix(1, 0, 0, 1, 231, 259)"><g clip-path="url(#5a360b2a6f)"><g fill="#0a0a0a" fill-opacity="1"><g transform="translate(5.479397, 8.441537)"><g><path d="M 3.546875 -1.375 C 3.546875 -1.082031 3.472656 -0.828125 3.328125 -0.609375 C 3.191406 -0.390625 2.984375 -0.222656 2.703125 -0.109375 C 2.429688 0.00390625 2.101562 0.0625 1.71875 0.0625 C 1.550781 0.0625 1.382812 0.0507812 1.21875 0.03125 C 1.050781 0.0078125 0.890625 -0.0195312 0.734375 -0.0625 C 0.585938 -0.101562 0.445312 -0.160156 0.3125 -0.234375 L 0.3125 -1.203125 C 0.550781 -1.097656 0.796875 -1.003906 1.046875 -0.921875 C 1.296875 -0.835938 1.546875 -0.796875 1.796875 -0.796875 C 1.972656 -0.796875 2.113281 -0.816406 2.21875 -0.859375 C 2.320312 -0.910156 2.394531 -0.972656 2.4375 -1.046875 C 2.488281 -1.128906 2.515625 -1.222656 2.515625 -1.328125 C 2.515625 -1.453125 2.472656 -1.554688 2.390625 -1.640625 C 2.304688 -1.734375 2.191406 -1.816406 2.046875 -1.890625 C 1.898438 -1.960938 1.738281 -2.046875 1.5625 -2.140625 C 1.4375 -2.191406 1.304688 -2.253906 1.171875 -2.328125 C 1.035156 -2.410156 0.90625 -2.507812 0.78125 -2.625 C 0.664062 -2.738281 0.566406 -2.875 0.484375 -3.03125 C 0.410156 -3.195312 0.375 -3.390625 0.375 -3.609375 C 0.375 -3.910156 0.441406 -4.164062 0.578125 -4.375 C 0.710938 -4.582031 0.90625 -4.742188 1.15625 -4.859375 C 1.40625 -4.972656 1.703125 -5.03125 2.046875 -5.03125 C 2.304688 -5.03125 2.550781 -5 2.78125 -4.9375 C 3.019531 -4.875 3.265625 -4.785156 3.515625 -4.671875 L 3.1875 -3.859375 C 2.957031 -3.953125 2.75 -4.023438 2.5625 -4.078125 C 2.382812 -4.128906 2.203125 -4.15625 2.015625 -4.15625 C 1.890625 -4.15625 1.78125 -4.132812 1.6875 -4.09375 C 1.59375 -4.050781 1.519531 -3.988281 1.46875 -3.90625 C 1.425781 -3.832031 1.40625 -3.742188 1.40625 -3.640625 C 1.40625 -3.523438 1.4375 -3.425781 1.5 -3.34375 C 1.570312 -3.269531 1.675781 -3.195312 1.8125 -3.125 C 1.957031 -3.050781 2.132812 -2.960938 2.34375 -2.859375 C 2.59375 -2.734375 2.804688 -2.609375 2.984375 -2.484375 C 3.160156 -2.359375 3.296875 -2.207031 3.390625 -2.03125 C 3.492188 -1.851562 3.546875 -1.632812 3.546875 -1.375 Z M 3.546875 -1.375 "/></g></g></g><g fill="#0a0a0a" fill-opacity="1"><g transform="translate(8.945389, 8.441537)"><g><path d="M 2.53125 0 L 1.484375 0 L 1.484375 -4.078125 L 0.140625 -4.078125 L 0.140625 -4.953125 L 3.875 -4.953125 L 3.875 -4.078125 L 2.53125 -4.078125 Z M 2.53125 0 "/></g></g></g><g fill="#0a0a0a" fill-opacity="1"><g transform="translate(12.607782, 8.441537)"><g><path d="M 3.46875 0 L 0.625 0 L 0.625 -4.953125 L 3.46875 -4.953125 L 3.46875 -4.09375 L 1.671875 -4.09375 L 1.671875 -3 L 3.34375 -3 L 3.34375 -2.140625 L 1.671875 -2.140625 L 1.671875 -0.875 L 3.46875 -0.875 Z M 3.46875 0 "/></g></g></g><g fill="#0a0a0a" fill-opacity="1"><g transform="translate(16.138112, 8.441537)"><g><path d="M 4.515625 -4.953125 L 2.828125 0 L 1.6875 0 L 0 -4.953125 L 1.0625 -4.953125 L 1.984375 -2 C 2.003906 -1.957031 2.03125 -1.863281 2.0625 -1.71875 C 2.101562 -1.582031 2.140625 -1.4375 2.171875 -1.28125 C 2.210938 -1.132812 2.238281 -1.015625 2.25 -0.921875 C 2.269531 -1.015625 2.296875 -1.132812 2.328125 -1.28125 C 2.359375 -1.4375 2.390625 -1.582031 2.421875 -1.71875 C 2.460938 -1.851562 2.492188 -1.945312 2.515625 -2 L 3.453125 -4.953125 Z M 4.515625 -4.953125 "/></g></g></g><g fill="#0a0a0a" fill-opacity="1"><g transform="translate(20.29151, 8.441537)"><g><path d="M 2.171875 -2.90625 L 3.203125 -4.953125 L 4.328125 -4.953125 L 2.6875 -1.921875 L 2.6875 0 L 1.640625 0 L 1.640625 -1.890625 L 0 -4.953125 L 1.140625 -4.953125 Z M 2.171875 -2.90625 "/></g></g></g><g fill="#0a0a0a" fill-opacity="1"><g transform="translate(0.648363, 15.376553)"><g><path d="M 5.125 -2.484375 C 5.125 -2.097656 5.070312 -1.75 4.96875 -1.4375 C 4.875 -1.125 4.726562 -0.851562 4.53125 -0.625 C 4.34375 -0.40625 4.097656 -0.234375 3.796875 -0.109375 C 3.503906 0.00390625 3.160156 0.0625 2.765625 0.0625 C 2.359375 0.0625 2.003906 0.00390625 1.703125 -0.109375 C 1.410156 -0.234375 1.164062 -0.40625 0.96875 -0.625 C 0.78125 -0.851562 0.640625 -1.125 0.546875 -1.4375 C 0.453125 -1.75 0.40625 -2.097656 0.40625 -2.484375 C 0.40625 -3.003906 0.488281 -3.453125 0.65625 -3.828125 C 0.820312 -4.210938 1.078125 -4.507812 1.421875 -4.71875 C 1.773438 -4.925781 2.222656 -5.03125 2.765625 -5.03125 C 3.304688 -5.03125 3.75 -4.925781 4.09375 -4.71875 C 4.4375 -4.507812 4.691406 -4.210938 4.859375 -3.828125 C 5.035156 -3.441406 5.125 -2.992188 5.125 -2.484375 Z M 1.5 -2.484375 C 1.5 -2.140625 1.539062 -1.84375 1.625 -1.59375 C 1.71875 -1.34375 1.859375 -1.148438 2.046875 -1.015625 C 2.234375 -0.878906 2.472656 -0.8125 2.765625 -0.8125 C 3.054688 -0.8125 3.296875 -0.878906 3.484375 -1.015625 C 3.671875 -1.148438 3.804688 -1.34375 3.890625 -1.59375 C 3.972656 -1.84375 4.015625 -2.140625 4.015625 -2.484375 C 4.015625 -3.003906 3.914062 -3.410156 3.71875 -3.703125 C 3.53125 -4.003906 3.210938 -4.15625 2.765625 -4.15625 C 2.472656 -4.15625 2.234375 -4.085938 2.046875 -3.953125 C 1.859375 -3.816406 1.71875 -3.625 1.625 -3.375 C 1.539062 -3.125 1.5 -2.828125 1.5 -2.484375 Z M 1.5 -2.484375 "/></g></g></g><g fill="#0a0a0a" fill-opacity="1"><g transform="translate(5.814246, 15.376553)"><g><path d="M 0.625 -4.953125 L 2.171875 -4.953125 C 2.828125 -4.953125 3.320312 -4.859375 3.65625 -4.671875 C 4 -4.484375 4.171875 -4.160156 4.171875 -3.703125 C 4.171875 -3.515625 4.140625 -3.34375 4.078125 -3.1875 C 4.015625 -3.039062 3.925781 -2.914062 3.8125 -2.8125 C 3.707031 -2.71875 3.570312 -2.65625 3.40625 -2.625 L 3.40625 -2.59375 C 3.570312 -2.5625 3.722656 -2.503906 3.859375 -2.421875 C 3.992188 -2.335938 4.097656 -2.21875 4.171875 -2.0625 C 4.253906 -1.90625 4.296875 -1.695312 4.296875 -1.4375 C 4.296875 -1.132812 4.222656 -0.875 4.078125 -0.65625 C 3.929688 -0.445312 3.71875 -0.285156 3.4375 -0.171875 C 3.164062 -0.0546875 2.84375 0 2.46875 0 L 0.625 0 Z M 1.671875 -2.984375 L 2.28125 -2.984375 C 2.582031 -2.984375 2.789062 -3.03125 2.90625 -3.125 C 3.03125 -3.226562 3.09375 -3.375 3.09375 -3.5625 C 3.09375 -3.75 3.019531 -3.882812 2.875 -3.96875 C 2.738281 -4.050781 2.519531 -4.09375 2.21875 -4.09375 L 1.671875 -4.09375 Z M 1.671875 -2.15625 L 1.671875 -0.875 L 2.359375 -0.875 C 2.671875 -0.875 2.890625 -0.929688 3.015625 -1.046875 C 3.140625 -1.171875 3.203125 -1.335938 3.203125 -1.546875 C 3.203125 -1.660156 3.175781 -1.765625 3.125 -1.859375 C 3.070312 -1.953125 2.976562 -2.023438 2.84375 -2.078125 C 2.71875 -2.128906 2.546875 -2.15625 2.328125 -2.15625 Z M 1.671875 -2.15625 "/></g></g></g><g fill="#0a0a0a" fill-opacity="1"><g transform="translate(10.120025, 15.376553)"><g><path d="M 3.65625 0 L 3.296875 -1.171875 L 1.484375 -1.171875 L 1.125 0 L 0 0 L 1.75 -4.96875 L 3.03125 -4.96875 L 4.78125 0 Z M 3.046875 -2.0625 L 2.6875 -3.21875 C 2.664062 -3.289062 2.632812 -3.382812 2.59375 -3.5 C 2.5625 -3.625 2.523438 -3.75 2.484375 -3.875 C 2.441406 -4 2.410156 -4.109375 2.390625 -4.203125 C 2.367188 -4.109375 2.335938 -3.992188 2.296875 -3.859375 C 2.265625 -3.722656 2.226562 -3.59375 2.1875 -3.46875 C 2.15625 -3.351562 2.128906 -3.269531 2.109375 -3.21875 L 1.75 -2.0625 Z M 3.046875 -2.0625 "/></g></g></g><g fill="#0a0a0a" fill-opacity="1"><g transform="translate(14.551095, 15.376553)"><g><path d="M 2.71875 0 L 1.53125 -3.890625 L 1.5 -3.890625 C 1.5 -3.796875 1.503906 -3.65625 1.515625 -3.46875 C 1.523438 -3.28125 1.535156 -3.082031 1.546875 -2.875 C 1.554688 -2.664062 1.5625 -2.472656 1.5625 -2.296875 L 1.5625 0 L 0.625 0 L 0.625 -4.953125 L 2.046875 -4.953125 L 3.21875 -1.171875 L 3.25 -1.171875 L 4.484375 -4.953125 L 5.921875 -4.953125 L 5.921875 0 L 4.9375 0 L 4.9375 -2.34375 C 4.9375 -2.5 4.9375 -2.675781 4.9375 -2.875 C 4.945312 -3.082031 4.957031 -3.273438 4.96875 -3.453125 C 4.976562 -3.640625 4.984375 -3.78125 4.984375 -3.875 L 4.953125 -3.875 L 3.6875 0 Z M 2.71875 0 "/></g></g></g><g fill="#0a0a0a" fill-opacity="1"><g transform="translate(20.736236, 15.376553)"><g><path d="M 3.46875 0 L 0.625 0 L 0.625 -4.953125 L 3.46875 -4.953125 L 3.46875 -4.09375 L 1.671875 -4.09375 L 1.671875 -3 L 3.34375 -3 L 3.34375 -2.140625 L 1.671875 -2.140625 L 1.671875 -0.875 L 3.46875 -0.875 Z M 3.46875 0 "/></g></g></g></g></g></svg>