<svg version="1.2" xmlns="http://www.w3.org/2000/svg" viewBox="0 0 400 400" width="400" height="400">
	<defs>
		<linearGradient id="g1" x2="1" gradientUnits="userSpaceOnUse" gradientTransform="matrix(330.491,0,0,309.74,35,199.87)">
			<stop offset="0" stop-color="#57f2cb"/>
			<stop offset=".008" stop-color="#57f2cb"/>
			<stop offset="1" stop-color="#5edfff"/>
		</linearGradient>
	</defs>
	<style>
		.s0 { fill: url(#g1) } 
	</style>
	<path id="Forme 1" class="s0" d="m130.49 53.05c0 0-118.23 43.67-91.58 183.16 0 0 19.88 91.92 122.11 117.75 0 0 124.52 16.77 117.75-104.67 0 0 4.24-43.77-65.42-69.77 0 0-33.89-14.04-43.61-34.89 0 0-7.6-68.68 69.78-47.97 0 0 102.97 19.81 74.14 152.63 0 0-19.32 61.98-43.61 95.95 0 0 61.67-16.45 91.58-104.67 0 0 17.45-76.64-21.8-130.83 0 0-60.75-83.08-152.64-61.06 0 0-86.21 19.29-61.06 117.75 0 0 10.65 35.94 61.06 52.34 0 0 58.39 18.82 43.61 61.05 0 0-23.81 45.73-82.86 17.45 0 0-63.62-19.57-65.42-95.95 0 0-5.27-35.18 13.08-69.77 0 0 21.69-72.84 34.89-78.5z"/>
</svg>