<svg version="1.2" xmlns="http://www.w3.org/2000/svg" viewBox="0 0 400 400" width="400" height="400">
	<defs>
		<linearGradient id="g1" x2="1" gradientUnits="userSpaceOnUse" gradientTransform="matrix(0,-26,204,0,260,213)">
			<stop offset="0" stop-color="#5edfff"/>
			<stop offset=".99" stop-color="#00f3d0"/>
			<stop offset="1" stop-color="#00f3d0"/>
		</linearGradient>
		<linearGradient id="g2" x2="1" gradientUnits="userSpaceOnUse" gradientTransform="matrix(110.721,0,0,103.769,38,199.884)">
			<stop offset="0" stop-color="#57f2cb"/>
			<stop offset=".008" stop-color="#57f2cb"/>
			<stop offset="1" stop-color="#5edfff"/>
		</linearGradient>
	</defs>
	<style>
		.s0 { fill: #ffffff } 
		.s1 { fill: url(#g1) } 
		.s2 { fill: url(#g2) } 
	</style>
	<path id="THINK.BUILD.EXCEL" class="s0" aria-label="THINK.BUILD.EXCEL"  d="m164.6 229h-1.9l2.3-6.1h-4.6l0.3-0.9h11.1l-0.3 0.9h-4.6zm17.1 0l2.6-7h1.9l-2.6 7zm-5.1-7l-2.6 7h-2l2.7-7zm6.8 3l-0.4 0.8h-8l0.3-0.8zm5.6 4h-1.9l2.7-7h1.9zm6 0h-1.9l2.7-7h1.5l6.5 5.8-0.6-0.1 2.2-5.7h1.9l-2.7 7h-1.6l-6.4-5.8h0.6zm19.9-3.2l-3.4 1.5 0.2-1.2 9.1-4.1h2.5l-7.3 3.3zm-3.8 3.2h-1.9l2.6-7h1.9zm9.9 0h-2.1l-4.4-3.3 1.3-0.7zm1.6 0.1q-0.5 0-0.9-0.2-0.4-0.2-0.4-0.5 0-0.3 0.4-0.5 0.5-0.2 1-0.2 0.5 0 0.9 0.2 0.3 0.2 0.3 0.5 0 0.2-0.2 0.3-0.2 0.2-0.5 0.3-0.3 0.1-0.6 0.1zm11.1-0.1h-6.5l2.7-7h5.9q2.1 0 3.2 0.4 1.1 0.4 1.1 1.2 0 0.6-0.7 1.1-0.6 0.4-1.6 0.7-1 0.2-2.1 0.2l0.5-0.3q1.5 0 2.4 0.4 0.9 0.4 0.9 1.1 0 0.8-0.7 1.2-0.7 0.5-2.1 0.8-1.3 0.2-3 0.2zm-2.2-6.2l-2 5.4h4.3q1.8 0 2.8-0.3 1-0.4 1-1.1 0-0.5-0.7-0.7-0.7-0.2-2.1-0.2h-4.8l0.3-0.8h4.3q1 0 1.8-0.2 0.8-0.1 1.2-0.4 0.5-0.3 0.5-0.8 0-0.4-0.7-0.6-0.7-0.3-2-0.3zm15.5 6.3q-1.9 0-3.1-0.4-1.2-0.4-1.7-1.1-0.5-0.6-0.1-1.6l1.5-4h1.9l-1.5 4q-0.4 1.1 0.4 1.6 0.9 0.6 2.8 0.6 1.7 0 2.8-0.5 1.1-0.6 1.6-1.7l1.5-4h1.9l-1.6 4q-0.6 1.6-2.2 2.3-1.6 0.8-4.2 0.8zm11.2-0.1h-1.9l2.7-7h1.9zm13.2 0h-9.1l2.6-7h1.9l-2.3 6.2h7.3zm7.8 0h-6l2.7-7h5.2q2 0 3.5 0.3 1.4 0.4 2.2 1 0.7 0.7 0.7 1.5 0 1-0.6 1.7-0.6 0.8-1.7 1.3-1.1 0.6-2.6 0.9-1.5 0.3-3.4 0.3zm-1.8-6.2l-2 5.3h3.8q2 0 3.4-0.4 1.5-0.4 2.2-1.2 0.8-0.7 0.8-1.6 0-0.6-0.5-1.1-0.5-0.5-1.6-0.7-1-0.3-2.6-0.3zm12.1 6.2q-0.5 0-0.9-0.2-0.3-0.2-0.3-0.4 0-0.3 0.4-0.5 0.4-0.3 0.9-0.3 0.6 0 0.9 0.2 0.4 0.2 0.4 0.5 0 0.2-0.2 0.4-0.2 0.1-0.5 0.2-0.3 0.1-0.7 0.1zm6.6-3.2l0.3-0.8h6.9l-0.3 0.8zm1.3-3l-2 5.3h7.8l-0.3 0.9h-9.7l2.6-7h9.5l-0.3 0.8zm9.3 6.2h-2.3l6.9-3.9-0.1 0.5-3.8-3.6h2l3.1 2.9h-0.9l5.3-2.9h2.2l-6.5 3.6v-0.5l4.1 3.9h-2l-3.3-3.2h0.8zm18 0.1q-2 0-3.4-0.4-1.5-0.4-2.2-1-0.8-0.7-0.8-1.6 0-0.8 0.6-1.6 0.6-0.8 1.6-1.3 1.1-0.6 2.6-0.9 1.6-0.4 3.4-0.4 1.7 0 3 0.3 1.3 0.3 2 0.8l-1.4 0.6q-0.6-0.4-1.5-0.6-0.9-0.2-2.2-0.2-1.4 0-2.6 0.3-1.1 0.2-1.9 0.7-0.8 0.4-1.2 1-0.5 0.6-0.5 1.3 0 0.6 0.6 1.1 0.5 0.5 1.5 0.7 1 0.3 2.5 0.3 1.3 0 2.3-0.2 1-0.2 1.8-0.6l1.1 0.6q-0.9 0.6-2.3 0.8-1.4 0.3-3 0.3zm10.4-3.2l0.3-0.9h6.9l-0.3 0.9zm1.3-3l-2 5.2h7.8l-0.3 0.9h-9.7l2.6-7h9.5l-0.3 0.9zm17.9 6.1h-9.2l2.7-7h1.9l-2.3 6.1h7.2z"/>
	<path id="SOVATECH" class="s1" aria-label="SOVATECH"  d="m168.7 212.5q-2.1 0-4.1-0.3-1.9-0.4-3.5-1-1.5-0.6-2.6-1.3l2.7-5.2q1.3 0.8 2.6 1.3 1.4 0.5 2.7 0.8 1.5 0.3 2.9 0.3 1.3 0 2.2-0.2 1-0.3 1.4-0.8 0.6-0.5 0.6-1.2 0-0.7-0.7-1.1-0.6-0.5-1.7-0.8-1-0.3-2.3-0.6-1.3-0.4-2.6-0.8-1.2-0.5-2.3-1.2-1.1-0.8-1.7-1.9-0.6-1.1-0.6-2.7 0-2.7 1.4-4.7 1.4-1.9 4.1-3 2.6-1.1 6.2-1.1 2.6 0 4.9 0.6 2.3 0.5 3.9 1.5l-2.5 5.2q-1.4-1-3.2-1.4-1.7-0.5-3.5-0.5-1.4 0-2.4 0.3-1 0.3-1.5 0.9-0.5 0.5-0.5 1.2 0 0.7 0.6 1.2 0.7 0.4 1.7 0.7 1.1 0.3 2.3 0.7 1.3 0.3 2.6 0.7 1.3 0.5 2.3 1.2 1.1 0.7 1.7 1.8 0.7 1.1 0.7 2.7 0 2.6-1.4 4.6-1.5 1.9-4.2 3-2.6 1.1-6.2 1.1zm26.1 0q-3.8 0-6.5-1.4-2.7-1.4-4.2-3.8-1.5-2.4-1.5-5.6 0-3.2 1.1-5.9 1.1-2.7 3.1-4.6 2.1-2 4.9-3.1 2.8-1.1 6.2-1.1 3.8 0 6.5 1.4 2.7 1.4 4.2 3.8 1.5 2.4 1.5 5.6 0 3.2-1.1 5.9-1.1 2.7-3.2 4.7-2 1.9-4.8 3-2.8 1.1-6.2 1.1zm0.6-5.7q1.8 0 3.2-0.7 1.4-0.7 2.4-1.9 1.1-1.2 1.6-2.7 0.5-1.6 0.5-3.3 0-1.6-0.7-2.9-0.7-1.2-2-1.9-1.2-0.7-3.1-0.7-1.8 0-3.2 0.7-1.4 0.7-2.5 1.9-0.9 1.2-1.5 2.7-0.5 1.6-0.5 3.3 0 1.6 0.7 2.9 0.7 1.2 1.9 1.9 1.3 0.7 3.2 0.7zm29.5 5.2h-6.8l-5.6-24.5h7.1l4.7 21.3h-4.5l13.3-21.3h7.2zm15 0h-7.3l15.7-24.5h6.8l6 24.5h-6.9l-4.4-21.2h2.7zm15.1-4.8h-15.6l2.8-5.1h12zm19.6 4.8h-6.9l3.8-19h-7.5l1.1-5.5h22l-1.1 5.5h-7.6zm18.2-9.9l1.1-5.1h11.3l-1 5.1zm2.3-9.3l-2.7 13.8h12.8l-1.1 5.4h-19.6l4.9-24.5h19.2l-1.1 5.3zm25.7 19.7q-3.7 0-6.5-1.4-2.8-1.4-4.3-3.8-1.5-2.4-1.5-5.6 0-3.2 1.1-5.9 1.1-2.7 3.2-4.7 2-1.9 4.8-3 2.8-1.1 6.2-1.1 3.4 0 6 1.2 2.7 1.2 4 3.4l-5 4q-0.9-1.4-2.2-2.1-1.4-0.8-3.2-0.8-1.8 0-3.3 0.7-1.4 0.6-2.4 1.8-1.1 1.1-1.6 2.7-0.6 1.5-0.6 3.3 0 1.7 0.7 2.9 0.7 1.3 2.1 2 1.3 0.6 3.2 0.6 1.6 0 3.1-0.6 1.6-0.7 2.9-2.2l4.1 4q-2.1 2.5-4.8 3.6-2.7 1-6 1zm29-0.5l4.9-24.5h6.9l-4.9 24.5zm-4.5-24.5l-4.9 24.5h-6.9l4.9-24.5zm8 9.2l-1.1 5.7h-10.4l1.2-5.7z"/>
	<path id="Forme 1" class="s2" d="m69.99 150.7c0 0-39.61 14.63-30.68 61.36 0 0 6.66 30.8 40.91 39.45 0 0 41.72 5.62 39.45-35.07 0 0 1.42-14.66-21.92-23.37 0 0-11.35-4.71-14.61-11.69 0 0-2.55-23.01 23.38-16.07 0 0 34.5 6.63 24.84 51.13 0 0-6.48 20.77-14.61 32.15 0 0 20.66-5.51 30.68-35.07 0 0 5.84-25.68-7.31-43.83 0 0-20.35-27.83-51.13-20.46 0 0-28.88 6.46-20.46 39.45 0 0 3.57 12.04 20.46 17.54 0 0 19.56 6.3 14.61 20.45 0 0-7.98 15.32-27.76 5.84 0 0-21.32-6.55-21.92-32.14 0 0-1.77-11.79 4.38-23.38 0 0 7.27-24.4 11.69-26.29z"/>
</svg>